# xmcd
# 
# Track frame offsets:
#     150
#     14927
#     35424
#     51350
#     68054
#     99656
#     107104
#     130128
#     153047
#     168912
#     183307
#     206938
#     225603
# 
# Disc length: 3233
# 
# Revision: 4
# Processed by: cddbd v1.5.2PL0 Copyright (c) Steve Scherf et al.
# Submitted via: fre:ac v1.0.27
# 
DISCID=b20c9f0d
DTITLE=Samuel James - Songs Famed for Sorrow and Joy
DYEAR=2008
DGENRE=Blues
TTITLE0=The "Here Comes Nina" Country-Ragtime Surprise
TTITLE1=Sunrise Blues
TTITLE2=Big Black Ben
TTITLE3=Sugar Smallhouse Heads for the Hills
TTITLE4=Wooooooo Rosa
TTITLE5=One-Eyed Katie
TTITLE6=Mid-December Blues
TTITLE7=Sugar Smallhouse and the Legend of the Wandering Siren Cactus
TTITLE8=Sleepy Girl Blues
TTITLE9=Baby-Doll
TTITLE10=Runnin' From My Baby's Gun, Whilst Previously Watchin' Butterflies From My Front Porch
TTITLE11=Love and Mumbly-Peg
TTITLE12=The Sad Ballad of Ol' Willie Chan
EXTD=
EXTT0=
EXTT1=
EXTT2=
EXTT3=
EXTT4=
EXTT5=
EXTT6=
EXTT7=
EXTT8=
EXTT9=
EXTT10=
EXTT11=
EXTT12=
PLAYORDER=
